<svg xmlns="http://www.w3.org/2000/svg" viewBox="0 0 14 14" height="600" width="600" stroke-width="1"><g><path d="M1.5,2.5a1,1,0,0,0-1,1v9a1,1,0,0,0,1,1h11a1,1,0,0,0,1-1v-9a1,1,0,0,0-1-1h-2" fill="none" stroke="#ffffff" stroke-linecap="round" stroke-linejoin="round"></path><line x1="3.5" y1="0.5" x2="3.5" y2="4.5" fill="none" stroke="#ffffff" stroke-linecap="round" stroke-linejoin="round"></line><line x1="10.5" y1="0.5" x2="10.5" y2="4.5" fill="none" stroke="#ffffff" stroke-linecap="round" stroke-linejoin="round"></line><line x1="3.5" y1="2.5" x2="8.5" y2="2.5" fill="none" stroke="#ffffff" stroke-linecap="round" stroke-linejoin="round"></line><circle cx="3.5" cy="7.5" r="0.5" fill="none" stroke="#ffffff" stroke-linecap="round" stroke-linejoin="round"></circle><circle cx="7" cy="7.5" r="0.5" fill="none" stroke="#ffffff" stroke-linecap="round" stroke-linejoin="round"></circle><circle cx="10.5" cy="7.5" r="0.5" fill="none" stroke="#ffffff" stroke-linecap="round" stroke-linejoin="round"></circle><circle cx="3.5" cy="10.5" r="0.5" fill="none" stroke="#ffffff" stroke-linecap="round" stroke-linejoin="round"></circle></g></svg>