<svg xmlns="http://www.w3.org/2000/svg" viewBox="0 0 14 14" height="600" width="600"><g><path d="M1.5,8.5V13a.5.5,0,0,0,.5.5H12a.5.5,0,0,0,.5-.5V8.5" fill="none" stroke="#ffffff" stroke-linecap="round" stroke-linejoin="round"></path><path d="M13,6H1a.5.5,0,0,1-.5-.5v-2L1.72,1.05A1,1,0,0,1,2.62.5h8.76a1,1,0,0,1,.9.55L13.5,3.5v2A.5.5,0,0,1,13,6Z" fill="none" stroke="#ffffff" stroke-linecap="round" stroke-linejoin="round"></path><line x1="8" y1="8.5" x2="8" y2="13.5" fill="none" stroke="#ffffff" stroke-linecap="round" stroke-linejoin="round"></line><line x1="1.5" y1="10" x2="8" y2="10" fill="none" stroke="#ffffff" stroke-linecap="round" stroke-linejoin="round"></line><line x1="0.5" y1="3.5" x2="13.5" y2="3.5" fill="none" stroke="#ffffff" stroke-linecap="round" stroke-linejoin="round"></line></g></svg>